<?xml version="1.0" encoding="utf-8"?>
<!-- Svg Vector Icons : http://www.onlinewebfonts.com/icon -->
<!DOCTYPE svg PUBLIC "-//W3C//DTD SVG 1.1//EN" "http://www.w3.org/Graphics/SVG/1.1/DTD/svg11.dtd">
<svg version="1.1" xmlns="http://www.w3.org/2000/svg" xmlns:xlink="http://www.w3.org/1999/xlink" x="0px" y="0px" viewBox="0 0 1000 1000" enable-background="new 0 0 1000 1000" xml:space="preserve"><defs><style>.cls-1{fill:#fea7cc;}.cls-2{fill:#aaa;}</style></defs>
<metadata> Svg Vector Icons : http://www.onlinewebfonts.com/icon </metadata>
<g><path class="cls-1" d="M878.5,221.9l-44.5,0.1c-13.5-29.8-22.6-49.3-27-57.6c-0.1-0.1-0.2-0.2-0.2-0.4c-15.1-31.2-47.3-32.3-58.7-32.7l-199.8,0.3c-10.6,0.4-42.8,1.6-57.5,32.4c-0.1,0.2-0.2,0.3-0.3,0.5c-5.5,10.5-16.8,35.3-27,58.1l-97.9,0.2l0-23.7c0-6.9-5.6-12.5-12.5-12.5l-133.7,0.2c-6.9,0-12.5,5.6-12.5,12.5l0,23.3c54.1,88.1,83.9,201.8,84.1,324.7c0.2,121.2-28.3,233.6-80.6,321.2l669.1-1.1c61-0.1,110.5-49.8,110.4-110.8l-0.7-424.3C989.2,271.3,939.5,221.7,878.5,221.9z M555.4,195.6l185.8-0.3l34.9,76l-254,0.4L555.4,195.6z M378.7,325.3c0-20.6,16.7-37.3,37.2-37.4c20.6,0,37.4,16.7,37.4,37.2c0,20.6-16.7,37.4-37.3,37.4C395.4,362.6,378.7,345.9,378.7,325.3z M649.7,798.5c-128.5,0.2-233.3-104.2-233.5-232.8C416,437.1,520.4,332.4,648.9,332.1c128.6-0.2,233.4,104.2,233.6,232.8C882.8,693.5,778.3,798.3,649.7,798.5z M649,378.7c-102.9,0.2-186.4,84-186.2,186.9c0.2,102.8,84,186.3,186.8,186.2c102.9-0.2,186.5-84,186.3-186.8C835.7,462.2,751.8,378.6,649,378.7z M649.6,705.2c-77.2,0.1-140-62.4-140.1-139.6c-0.1-77.3,62.4-140,139.7-140.2c77.3-0.1,140,62.4,140.1,139.7C789.4,642.3,726.9,705,649.6,705.2z M155.1,868.7l-33.6,0.1c-61,0.1-110.7-49.5-110.8-110.4L10,334c-0.1-29.5,11.4-57.4,32.2-78.3c20.9-20.9,48.6-32.5,78.2-32.5l31.1-0.1c59.7,83.4,92.9,198.3,93.1,324.4C244.7,671.9,212.9,785.6,155.1,868.7z"/></g>
</svg>